<?xml version="1.0" encoding="utf-8"?>
<!-- Generator: Adobe Illustrator 16.0.3, SVG Export Plug-In . SVG Version: 6.00 Build 0)  -->
<svg xmlns="http://www.w3.org/2000/svg" width="561.066px" height="561.066px">
<path fill="#FFFFFF" stroke="#000000" stroke-width="4" stroke-miterlimit="10" d="M280.532,559.066
	C126.73,559.066,2,434.336,2,280.532C2,126.731,126.73,2,280.532,2c153.803,0,278.534,124.73,278.534,278.532
	C559.066,434.336,434.335,559.066,280.532,559.066z"/>
<path fill="#D9261C" d="M279.943,16.619c-145.871-0.113-264.5,119.104-264.5,264.738c0.235,145.754,118.629,264.502,264.38,264.736
	h0.001c145.873-0.119,264.621-118.867,264.621-264.854C544.445,135.84,425.697,16.619,279.943,16.619z"/>
<path fill="#291770" d="M280.532,487.066c-46.324,0-91.629-15.727-127.569-44.281l-2.634-2.092l130.203-130.209l130.191,130.197
	l-2.609,2.096C372.016,471.752,327.898,487.066,280.532,487.066z M310.255,280.769l129.969-129.967l2.092,2.633
	c28.969,36.46,44.28,80.493,44.28,127.336c0,45.444-15.719,90.739-44.259,127.542l-2.088,2.691L310.255,280.769z M118.512,408.095
	c-28.968-36.705-44.278-80.734-44.278-127.325c0-47.154,15.315-91.189,44.292-127.346l2.094-2.613l129.96,129.959L120.602,410.744
	L118.512,408.095z M150.079,121.076l2.654-2.094c36.37-28.704,81.758-44.512,127.799-44.512c45.926,0,91.146,15.724,127.329,44.273
	l2.646,2.088l-129.97,130.216L150.079,121.076z"/>
<path fill="#FFFFFF" d="M280.532,77.471c46.936,0,90.802,16.272,125.471,43.629L280.532,246.808l-125.94-125.47
	C189.26,93.979,233.363,77.471,280.532,77.471 M439.966,155.301c27.355,34.431,43.63,78.063,43.63,125.47
	c0,46.932-16.745,91.036-43.63,125.704L314.495,280.771L439.966,155.301 M120.866,155.301l125.471,125.47L120.866,406.236
	c-27.358-34.668-43.633-78.297-43.633-125.466C77.233,233.364,93.273,189.731,120.866,155.301 M280.532,314.728l125.704,125.709
	c-34.668,27.826-78.063,43.631-125.704,43.631c-47.406,0-91.272-16.275-125.704-43.631L280.532,314.728 M280.532,71.471
	c-46.713,0-92.759,16.037-129.658,45.157l-5.307,4.188l4.79,4.772l125.94,125.47l4.247,4.23l4.235-4.242l125.471-125.708
	l4.764-4.772l-5.294-4.177c-18.059-14.249-38.194-25.358-59.852-33.02C327.548,75.474,304.221,71.471,280.532,71.471L280.532,71.471
	z M440.479,146.302l-4.756,4.756l-125.471,125.47l-4.239,4.239l4.235,4.243l125.47,125.703l4.813,4.822l4.175-5.385
	c28.946-37.326,44.888-83.273,44.888-129.38c0-23.895-4.004-47.313-11.899-69.604c-7.646-21.583-18.759-41.635-33.03-59.598
	L440.479,146.302L440.479,146.302z M120.372,146.322l-4.188,5.228c-14.344,17.899-25.494,37.96-33.14,59.625
	c-7.837,22.209-11.811,45.625-11.811,69.597c0,23.776,4.004,47.133,11.901,69.424c7.642,21.572,18.752,41.678,33.021,59.76
	l4.181,5.299l4.772-4.771l125.471-125.467l4.243-4.244l-4.243-4.243l-125.471-125.47L120.372,146.322L120.372,146.322z
	 M280.532,306.244l-4.243,4.242L150.586,436.193l-4.756,4.758l5.266,4.184c17.949,14.262,38.043,25.375,59.721,33.033
	c22.351,7.896,45.807,11.898,69.716,11.898c48.057,0,92.823-15.543,129.46-44.951l5.219-4.188l-4.73-4.732L284.775,310.486
	L280.532,306.244L280.532,306.244z"/>
</svg>